# Blender v3.1.2 OBJ File: ''
# www.blender.org
mtllib PirateCoin.mtl
o Cylinder001
v 0.021584 -0.003302 0.004293
v 0.020333 -0.003302 0.008421
v 0.022006 -0.003302 -0.000000
v 0.021584 -0.003302 -0.004293
v 0.021584 0.003302 -0.004293
v 0.022006 0.003302 0.000000
v 0.020333 -0.003302 -0.008421
v 0.020333 0.003302 -0.008421
v 0.018298 -0.003302 -0.012230
v 0.018298 0.003302 -0.012230
v 0.015561 -0.003302 -0.015561
v 0.015561 0.003302 -0.015561
v 0.012227 -0.003302 -0.018298
v 0.012227 0.003302 -0.018298
v 0.008424 -0.003302 -0.020336
v 0.008424 0.003302 -0.020336
v 0.004297 -0.003302 -0.021587
v 0.004297 0.003302 -0.021587
v 0.000000 -0.003302 -0.022010
v 0.000000 0.003302 -0.022010
v -0.004293 -0.003302 -0.021587
v -0.004293 0.003302 -0.021587
v -0.008421 -0.003302 -0.020336
v -0.008421 0.003302 -0.020336
v -0.012227 -0.003302 -0.018298
v -0.012227 0.003302 -0.018298
v -0.015561 -0.003302 -0.015561
v -0.015561 0.003302 -0.015561
v -0.018301 -0.003302 -0.012230
v -0.018301 0.003302 -0.012230
v -0.020333 -0.003302 -0.008421
v -0.020333 0.003302 -0.008421
v -0.021584 -0.003302 -0.004293
v -0.021584 0.003302 -0.004293
v -0.022010 -0.003302 -0.000000
v -0.022010 0.003302 0.000000
v -0.021584 -0.003302 0.004293
v -0.021584 0.003302 0.004293
v -0.020333 -0.003302 0.008421
v -0.020333 0.003302 0.008421
v -0.018301 -0.003302 0.012230
v -0.018301 0.003302 0.012230
v -0.015561 -0.003302 0.015561
v -0.015561 0.003302 0.015561
v -0.012227 -0.003302 0.018298
v -0.012227 0.003302 0.018298
v -0.008421 -0.003302 0.020336
v -0.008421 0.003302 0.020336
v -0.004293 -0.003302 0.021587
v -0.004293 0.003302 0.021587
v 0.000000 -0.003302 0.022010
v 0.000000 0.003302 0.022010
v 0.004297 -0.003302 0.021587
v 0.004297 0.003302 0.021587
v 0.008424 -0.003302 0.020336
v 0.008424 0.003302 0.020336
v 0.012227 -0.003302 0.018298
v 0.012227 0.003302 0.018298
v 0.015561 -0.003302 0.015561
v 0.015561 0.003302 0.015561
v 0.018298 -0.003302 0.012230
v 0.018298 0.003302 0.012230
v 0.020333 0.003302 0.008421
v 0.021584 0.003302 0.004293
vt 0.516000 0.311600
vt 0.501300 0.360000
vt 0.521000 0.261300
vt 0.020100 0.931700
vt 0.048900 0.903100
vt 0.092700 0.947300
vt 0.063800 0.975900
vt 0.077800 0.874500
vt 0.121600 0.918700
vt 0.106700 0.845900
vt 0.150500 0.890100
vt 0.135600 0.817300
vt 0.179400 0.861500
vt 0.164500 0.788700
vt 0.208200 0.832900
vt 0.193300 0.760100
vt 0.237100 0.804300
vt 0.222200 0.731500
vt 0.266000 0.775700
vt 0.251100 0.702800
vt 0.294900 0.747000
vt 0.280000 0.674200
vt 0.323800 0.718400
vt 0.308800 0.645600
vt 0.352600 0.689800
vt 0.337700 0.617000
vt 0.381500 0.661200
vt 0.366600 0.588400
vt 0.410400 0.632600
vt 0.395500 0.559800
vt 0.439300 0.604000
vt 0.424300 0.531200
vt 0.468100 0.575300
vt 0.453200 0.502500
vt 0.497000 0.546700
vt 0.482100 0.473900
vt 0.525900 0.518100
vt 0.511000 0.445300
vt 0.554800 0.489500
vt 0.539800 0.416700
vt 0.583600 0.460800
vt 0.568700 0.388000
vt 0.612500 0.432200
vt 0.597600 0.359400
vt 0.641400 0.403600
vt 0.626400 0.330800
vt 0.670300 0.374900
vt 0.655300 0.302100
vt 0.699100 0.346300
vt 0.684200 0.273500
vt 0.728000 0.317700
vt 0.713000 0.244800
vt 0.756900 0.289000
vt 0.741900 0.216200
vt 0.785700 0.260400
vt 0.770700 0.187600
vt 0.814600 0.231700
vt 0.799600 0.158900
vt 0.843400 0.203100
vt 0.828500 0.130300
vt 0.872300 0.174500
vt 0.857300 0.101600
vt 0.901200 0.145800
vt 0.886200 0.073000
vt 0.930000 0.117200
vt 0.915000 0.044400
vt 0.958900 0.088500
vt 0.943900 0.015700
vt 0.987700 0.059900
vt 0.979300 0.674200
vt 0.984300 0.724500
vt 0.964600 0.625800
vt 0.979300 0.774800
vt 0.964600 0.823200
vt 0.940800 0.867800
vt 0.908700 0.906900
vt 0.869600 0.939000
vt 0.825000 0.962800
vt 0.776600 0.977500
vt 0.726300 0.982400
vt 0.676000 0.977500
vt 0.627600 0.962800
vt 0.583000 0.939000
vt 0.543900 0.906900
vt 0.511800 0.867800
vt 0.488000 0.823200
vt 0.473300 0.774800
vt 0.468400 0.724500
vt 0.473300 0.674200
vt 0.488000 0.625800
vt 0.511800 0.581200
vt 0.543900 0.542100
vt 0.583000 0.510000
vt 0.627600 0.486200
vt 0.676000 0.471500
vt 0.726300 0.466500
vt 0.776600 0.471500
vt 0.825000 0.486200
vt 0.869600 0.510000
vt 0.908700 0.542100
vt 0.940800 0.581200
vt 0.477500 0.404600
vt 0.445400 0.443700
vt 0.406300 0.475800
vt 0.361700 0.499600
vt 0.313400 0.514300
vt 0.263000 0.519200
vt 0.212700 0.514300
vt 0.164300 0.499600
vt 0.119700 0.475800
vt 0.080600 0.443700
vt 0.048600 0.404600
vt 0.024700 0.360000
vt 0.010000 0.311600
vt 0.005100 0.261300
vt 0.010000 0.211000
vt 0.024700 0.162600
vt 0.048600 0.118000
vt 0.080600 0.078900
vt 0.119700 0.046800
vt 0.164300 0.023000
vt 0.212700 0.008300
vt 0.263000 0.003400
vt 0.313400 0.008300
vt 0.361700 0.023000
vt 0.406300 0.046800
vt 0.445400 0.078900
vt 0.477500 0.118000
vt 0.501300 0.162600
vt 0.516000 0.211000
vn 0.7139 -0.6857 0.1419
vn 0.6725 -0.6857 0.2784
vn 0.7279 -0.6857 -0.0000
vn 0.7139 -0.6857 -0.1419
vn 0.7139 0.6857 -0.1419
vn 0.7279 0.6857 0.0000
vn 0.6725 -0.6857 -0.2787
vn 0.6724 0.6857 -0.2787
vn 0.6052 -0.6856 -0.4045
vn 0.6052 0.6856 -0.4045
vn 0.5145 -0.6857 -0.5148
vn 0.5145 0.6857 -0.5148
vn 0.4047 -0.6858 -0.6049
vn 0.4044 0.6857 -0.6051
vn 0.2789 -0.6856 -0.6725
vn 0.2785 0.6857 -0.6725
vn 0.1419 -0.6857 -0.7139
vn 0.1419 0.6857 -0.7139
vn -0.0000 -0.6857 -0.7279
vn -0.0000 0.6857 -0.7279
vn -0.1419 -0.6857 -0.7139
vn -0.1419 0.6857 -0.7139
vn -0.2788 -0.6856 -0.6725
vn -0.2788 0.6856 -0.6725
vn -0.4046 -0.6858 -0.6050
vn -0.4046 0.6858 -0.6050
vn -0.5148 -0.6857 -0.5147
vn -0.5143 0.6858 -0.5149
vn -0.6054 -0.6855 -0.4045
vn -0.6054 0.6855 -0.4045
vn -0.6725 -0.6857 -0.2786
vn -0.6724 0.6857 -0.2787
vn -0.7138 -0.6858 -0.1422
vn -0.7138 0.6858 -0.1422
vn -0.7280 -0.6856 -0.0000
vn -0.7280 0.6856 0.0000
vn -0.7138 -0.6858 0.1422
vn -0.7138 0.6858 0.1422
vn -0.6725 -0.6857 0.2785
vn -0.6725 0.6857 0.2786
vn -0.6054 -0.6855 0.4045
vn -0.6054 0.6855 0.4045
vn -0.5143 -0.6858 0.5149
vn -0.5143 0.6858 0.5149
vn -0.4046 -0.6858 0.6050
vn -0.4046 0.6858 0.6050
vn -0.2788 -0.6856 0.6725
vn -0.2788 0.6856 0.6725
vn -0.1419 -0.6857 0.7139
vn -0.1419 0.6857 0.7139
vn -0.0000 -0.6857 0.7279
vn -0.0000 0.6857 0.7279
vn 0.1419 -0.6857 0.7139
vn 0.1419 0.6857 0.7139
vn 0.2789 -0.6856 0.6725
vn 0.2789 0.6856 0.6725
vn 0.4047 -0.6858 0.6049
vn 0.4047 0.6858 0.6049
vn 0.5145 -0.6857 0.5148
vn 0.5145 0.6857 0.5148
vn 0.6052 -0.6856 0.4045
vn 0.6052 0.6856 0.4045
vn 0.6725 0.6857 0.2784
vn 0.7139 0.6857 0.1419
usemtl wire_088144225
s 1
f 1/1/1 2/2/2 3/3/3
f 3/4/3 4/5/4 5/6/5 6/7/6
f 4/5/4 7/8/7 8/9/8 5/6/5
f 7/8/7 9/10/9 10/11/10 8/9/8
f 9/10/9 11/12/11 12/13/12 10/11/10
f 11/12/11 13/14/13 14/15/14 12/13/12
f 13/14/13 15/16/15 16/17/16 14/15/14
f 15/16/15 17/18/17 18/19/18 16/17/16
f 17/18/17 19/20/19 20/21/20 18/19/18
f 19/20/19 21/22/21 22/23/22 20/21/20
f 21/22/21 23/24/23 24/25/24 22/23/22
f 23/24/23 25/26/25 26/27/26 24/25/24
f 25/26/25 27/28/27 28/29/28 26/27/26
f 27/28/27 29/30/29 30/31/30 28/29/28
f 29/30/29 31/32/31 32/33/32 30/31/30
f 31/32/31 33/34/33 34/35/34 32/33/32
f 33/34/33 35/36/35 36/37/36 34/35/34
f 35/36/35 37/38/37 38/39/38 36/37/36
f 37/38/37 39/40/39 40/41/40 38/39/38
f 39/40/39 41/42/41 42/43/42 40/41/40
f 41/42/41 43/44/43 44/45/44 42/43/42
f 43/44/43 45/46/45 46/47/46 44/45/44
f 45/46/45 47/48/47 48/49/48 46/47/46
f 47/48/47 49/50/49 50/51/50 48/49/48
f 49/50/49 51/52/51 52/53/52 50/51/50
f 51/52/51 53/54/53 54/55/54 52/53/52
f 53/54/53 55/56/55 56/57/56 54/55/54
f 55/56/55 57/58/57 58/59/58 56/57/56
f 57/58/57 59/60/59 60/61/60 58/59/58
f 59/60/59 61/62/61 62/63/62 60/61/60
f 61/62/61 2/64/2 63/65/63 62/63/62
f 2/64/2 1/66/1 64/67/64 63/65/63
f 1/66/1 3/68/3 6/69/6 64/67/64
f 64/70/64 6/71/6 63/72/63
f 6/71/6 5/73/5 8/74/8
f 8/74/8 10/75/10 12/76/12
f 12/76/12 14/77/14 16/78/16
f 8/74/8 12/76/12 16/78/16
f 16/78/16 18/79/18 20/80/20
f 20/80/20 22/81/22 24/82/24
f 16/78/16 20/80/20 24/82/24
f 24/82/24 26/83/26 28/84/28
f 28/84/28 30/85/30 32/86/32
f 24/82/24 28/84/28 32/86/32
f 16/78/16 24/82/24 32/86/32
f 32/86/32 34/87/34 36/88/36
f 36/88/36 38/89/38 40/90/40
f 32/86/32 36/88/36 40/90/40
f 40/90/40 42/91/42 44/92/44
f 44/92/44 46/93/46 48/94/48
f 40/90/40 44/92/44 48/94/48
f 32/86/32 40/90/40 48/94/48
f 48/94/48 50/95/50 52/96/52
f 52/96/52 54/97/54 56/98/56
f 48/94/48 52/96/52 56/98/56
f 56/98/56 58/99/58 60/100/60
f 60/100/60 62/101/62 63/72/63
f 56/98/56 60/100/60 63/72/63
f 48/94/48 56/98/56 63/72/63
f 32/86/32 48/94/48 63/72/63
f 16/78/16 32/86/32 63/72/63
f 8/74/8 16/78/16 63/72/63
f 6/71/6 8/74/8 63/72/63
f 2/2/2 61/102/61 59/103/59
f 59/103/59 57/104/57 55/105/55
f 55/105/55 53/106/53 51/107/51
f 59/103/59 55/105/55 51/107/51
f 51/107/51 49/108/49 47/109/47
f 47/109/47 45/110/45 43/111/43
f 51/107/51 47/109/47 43/111/43
f 43/111/43 41/112/41 39/113/39
f 39/113/39 37/114/37 35/115/35
f 43/111/43 39/113/39 35/115/35
f 51/107/51 43/111/43 35/115/35
f 35/115/35 33/116/33 31/117/31
f 31/117/31 29/118/29 27/119/27
f 35/115/35 31/117/31 27/119/27
f 27/119/27 25/120/25 23/121/23
f 23/121/23 21/122/21 19/123/19
f 27/119/27 23/121/23 19/123/19
f 35/115/35 27/119/27 19/123/19
f 19/123/19 17/124/17 15/125/15
f 15/125/15 13/126/13 11/127/11
f 19/123/19 15/125/15 11/127/11
f 11/127/11 9/128/9 7/129/7
f 7/129/7 4/130/4 3/3/3
f 11/127/11 7/129/7 3/3/3
f 19/123/19 11/127/11 3/3/3
f 35/115/35 19/123/19 3/3/3
f 51/107/51 35/115/35 3/3/3
f 59/103/59 51/107/51 3/3/3
f 2/2/2 59/103/59 3/3/3
